<?xml version="1.0" encoding="UTF-8"?>
<svg id="Layer_1" xmlns="http://www.w3.org/2000/svg" version="1.1" viewBox="0 0 458.53 561.79">
  <!-- Generator: Adobe Illustrator 30.6.0, SVG Export Plug-In . SVG Version: 2.1.4 Build 109)  -->
  <defs>
    <style>
      .st0 {
        fill: #081d3f;
      }

      .st1 {
        fill: #b1183c;
      }

      .st2 {
        fill: #00609a;
      }
    </style>
  </defs>
  <g>
    <path class="st0" d="M235.8,128.18v-12.52l21.37-21.4-27.22-27.22-27.25,27.22,21.37,21.37v12.55h-34.35v11.45h34.35v63.07h11.73v-63.07h34.35v-11.45h-34.35ZM217.93,94.27l12.01-12.01,12.01,12.01-12.01,12.01-12.01-12.01Z"/>
    <polygon class="st2" points="230.37 214.27 230.37 214.23 160.23 144.09 171.02 132.31 173.5 142.01 230.37 198.88 230.37 198.93 287.24 142.06 289.72 132.36 300.5 144.14 230.37 214.27"/>
    <polygon class="st1" points="313.87 160.06 229.27 244.94 144.65 160.06 152.24 152.48 229.27 228.57 306.29 152.48 313.87 160.06"/>
  </g>
  <path class="st0" d="M400.4,501.97H58.12v-93.99h-10.44v104.43h363.16v-104.43h-10.44v93.99ZM47.68,0v222.97h10.44V10.44h342.28v212.53h10.44V0H47.68Z"/>
  <rect class="st1" x="47.68" y="378.26" width="363.16" height="3.77"/>
  <g>
    <path class="st2" d="M105.39,416.54h5.17v23.82h-5.51v-10.58c0-1.53.1-3.4.24-4.63l-.14-.07c-.51.99-1.4,2.42-2.48,3.91l-4.63,6.57h-1.22l-4.59-6.53c-1.05-1.46-2.01-2.89-2.52-3.91l-.14.07c.14,1.22.27,3.1.27,4.63v10.55h-5.51v-23.82h5.21l7.96,11.37,7.89-11.37Z"/>
    <path class="st2" d="M150.39,440.36l-1.84-4.36h-10.75l-1.8,4.36h-5.85l10.21-23.82h5.89l10.17,23.82h-6.02ZM139.57,431.34h7.25l-2.18-5.95c-.75-1.97-1.16-3.13-1.36-3.81h-.14c-.24.75-.65,1.87-1.4,3.95l-2.18,5.82Z"/>
    <path class="st2" d="M189.79,440.36l-6.09-7.86h-2.18v7.86h-5.58v-23.82h10.48c5.1,0,8.68,3.23,8.68,7.96,0,3.64-2.04,6.36-5.44,7.49l6.77,8.37h-6.64ZM185.81,421.17h-4.32v7.01h4.32c2.42,0,3.74-1.22,3.74-3.4,0-2.31-1.33-3.61-3.74-3.61Z"/>
    <path class="st2" d="M216.34,440.36v-23.82h5.58v23.82h-5.58Z"/>
    <path class="st2" d="M261.57,416.54v4.7h-7.25v19.12h-5.55v-19.12h-7.18v-4.7h19.97Z"/>
    <path class="st2" d="M281.29,440.36v-23.82h5.58v23.82h-5.58Z"/>
    <path class="st2" d="M330.07,416.54h5.17v23.82h-5.51v-10.58c0-1.53.1-3.4.24-4.63l-.14-.07c-.51.99-1.4,2.42-2.48,3.91l-4.63,6.57h-1.22l-4.59-6.53c-1.05-1.46-2.01-2.89-2.52-3.91l-.14.07c.14,1.22.27,3.1.27,4.63v10.55h-5.51v-23.82h5.21l7.96,11.37,7.89-11.37Z"/>
    <path class="st2" d="M362.89,435.66h12.08v4.7h-17.49v-23.82h17.12v4.63h-11.71v4.87h11.06v4.49h-11.06v5.14Z"/>
  </g>
  <g>
    <path class="st2" d="M82.21,479.64l1.94-3.86c2.09,1.35,4.31,2.09,6.37,2.09,2.36,0,3.83-.87,3.83-2.51,0-1.35-.9-2.21-3.83-2.57-5.27-.6-7.72-2.54-7.72-6.04,0-3.95,3.29-6.52,8.08-6.52,2.72,0,4.88.48,7.45,1.86l-1.77,3.71c-1.95-1.05-3.83-1.53-5.51-1.53-2.15,0-3.47.87-3.47,2.27s1.17,1.92,3.86,2.27c5.3.72,7.75,2.93,7.75,6.52,0,4.1-3.44,6.79-8.62,6.79-3.08,0-5.89-.78-8.38-2.48Z"/>
    <path class="st2" d="M116.01,471.26c0-6.67,4.49-11.07,11.4-11.07s11.13,4.31,11.13,10.89-4.49,11.07-11.43,11.07-11.1-4.31-11.1-10.89ZM133.6,471.26c0-4.1-2.54-6.79-6.28-6.79s-6.37,2.72-6.37,6.61c0,4.1,2.51,6.76,6.25,6.76s6.4-2.6,6.4-6.58Z"/>
    <path class="st2" d="M161.77,477.43h10.44v4.22h-15.35v-20.95h4.91v16.73Z"/>
    <path class="st2" d="M189.14,472.64v-11.94h4.88v12c0,3.44,1.71,5.15,4.43,5.15s4.46-1.77,4.46-5.12v-12.03h4.88v11.97c0,5.89-3.62,9.43-9.34,9.43s-9.31-3.41-9.31-9.46Z"/>
    <path class="st2" d="M242.62,460.7v4.13h-6.37v16.82h-4.88v-16.82h-6.31v-4.13h17.56Z"/>
    <path class="st2" d="M260,481.65v-20.95h4.91v20.95h-4.91Z"/>
    <path class="st2" d="M283.23,471.26c0-6.67,4.49-11.07,11.4-11.07s11.13,4.31,11.13,10.89-4.49,11.07-11.43,11.07-11.1-4.31-11.1-10.89ZM300.83,471.26c0-4.1-2.54-6.79-6.28-6.79s-6.37,2.72-6.37,6.61c0,4.1,2.51,6.76,6.25,6.76s6.4-2.6,6.4-6.58Z"/>
    <path class="st2" d="M324.09,481.65v-20.95h4.52l7.24,10.08c1.02,1.47,1.74,2.48,2.36,3.41l.12-.06c-.27-1.29-.36-3.05-.36-5.45v-7.99h4.79v20.95h-4.52l-7.27-10.08c-1.14-1.62-1.83-2.6-2.33-3.38l-.12.06c.24,1.05.36,3.02.36,5.42v7.99h-4.79Z"/>
    <path class="st2" d="M360.98,479.64l1.95-3.86c2.09,1.35,4.31,2.09,6.37,2.09,2.36,0,3.83-.87,3.83-2.51,0-1.35-.9-2.21-3.83-2.57-5.27-.6-7.72-2.54-7.72-6.04,0-3.95,3.29-6.52,8.08-6.52,2.72,0,4.88.48,7.45,1.86l-1.77,3.71c-1.95-1.05-3.83-1.53-5.51-1.53-2.15,0-3.47.87-3.47,2.27s1.17,1.92,3.86,2.27c5.3.72,7.75,2.93,7.75,6.52,0,4.1-3.44,6.79-8.62,6.79-3.08,0-5.9-.78-8.38-2.48Z"/>
  </g>
  <g>
    <path class="st0" d="M6.97,545.02c4.04,0,5.89,2.77,5.89,5.68s-1.85,5.78-5.89,5.78H2.72v4.98H0v-16.44h6.97ZM6.81,553.99c2.37,0,3.29-1.57,3.29-3.19s-.92-3.29-3.29-3.29H2.72v6.48h4.09Z"/>
    <path class="st0" d="M20.11,561.46v-16.44h2.72v16.44h-2.72Z"/>
    <path class="st0" d="M31.55,561.46v-16.44h2.63l7.42,10.17,1.29,1.83.05-.02c-.05-.47-.07-1.01-.07-1.81v-10.17h2.72v16.44h-2.63l-7.42-10.17c-.77-1.06-1.06-1.46-1.29-1.83l-.07.02c.05.45.09,1.01.09,1.81v10.17h-2.72Z"/>
    <path class="st0" d="M54.33,561.46v-16.44h2.63l7.42,10.17,1.29,1.83.05-.02c-.05-.47-.07-1.01-.07-1.81v-10.17h2.72v16.44h-2.63l-7.42-10.17c-.77-1.06-1.06-1.46-1.29-1.83l-.07.02c.05.45.09,1.01.09,1.81v10.17h-2.72Z"/>
    <path class="st0" d="M89.95,561.46l-1.55-3.43h-8.62l-1.55,3.43h-2.96l7.33-16.44h3.03l7.33,16.44h-3.01ZM80.82,555.59h6.55l-2.18-5.26c-.61-1.46-.96-2.28-1.06-2.61h-.05c-.14.33-.52,1.27-1.1,2.63l-2.16,5.24Z"/>
    <path class="st0" d="M98.05,553.29c0-5.05,3.59-8.59,8.69-8.59,2.32,0,4.37.84,5.96,2.32l-1.6,2.04c-1.34-1.22-2.75-1.78-4.42-1.78-3.45,0-5.82,2.39-5.82,5.92s2.42,6.01,5.89,6.01c1.69,0,3.15-.49,4.49-1.71l1.6,2.04c-1.53,1.46-3.57,2.25-6.13,2.25-5.12,0-8.67-3.5-8.67-8.5Z"/>
    <path class="st0" d="M122.71,558.97h8.67v2.49h-11.39v-16.44h2.72v13.95Z"/>
    <path class="st0" d="M141.11,558.95h8.78v2.51h-11.51v-16.44h11.37v2.47h-8.64v4.42h8.24v2.44h-8.24v4.6Z"/>
    <path class="st0" d="M183.41,545.02h2.65v16.44h-2.72v-10.1c0-.66.02-1.2.07-1.64l-.05-.02c-.21.38-.68,1.06-1.2,1.83l-4.34,6.43h-.94l-4.3-6.41c-.45-.63-.96-1.41-1.2-1.76l-.07.02c.05.45.07.99.07,1.64v10h-2.72v-16.44h2.68l6.04,9.04,6.04-9.04Z"/>
    <path class="st0" d="M207.65,561.46l-1.55-3.43h-8.62l-1.55,3.43h-2.96l7.33-16.44h3.03l7.33,16.44h-3.01ZM198.52,555.59h6.55l-2.18-5.26c-.61-1.46-.96-2.28-1.06-2.61h-.05c-.14.33-.52,1.27-1.1,2.63l-2.16,5.24Z"/>
    <path class="st0" d="M227.39,561.46l-4.77-5.61h-2.28v5.61h-2.77v-16.44h6.69c3.48,0,5.8,2.14,5.8,5.38,0,2.72-1.64,4.72-4.25,5.28l5.03,5.78h-3.45ZM224.12,547.51h-3.78v5.87h3.8c1.97,0,3.15-1.08,3.15-2.89s-1.17-2.98-3.17-2.98Z"/>
    <path class="st0" d="M238.02,561.46v-16.44h2.72v16.44h-2.72Z"/>
    <path class="st0" d="M249.46,561.46v-16.44h2.63l7.42,10.17,1.29,1.83.05-.02c-.05-.47-.07-1.01-.07-1.81v-10.17h2.72v16.44h-2.63l-7.42-10.17c-.77-1.06-1.06-1.46-1.29-1.83l-.07.02c.05.45.09,1.01.09,1.81v10.17h-2.72Z"/>
    <path class="st0" d="M274.97,558.95h8.78v2.51h-11.51v-16.44h11.37v2.47h-8.64v4.42h8.24v2.44h-8.24v4.6Z"/>
    <path class="st0" d="M307.26,561.46l-6.67-16.44h2.98l3.24,8.2c.77,1.97,1.46,3.87,1.88,5.12h.05c.4-1.25.73-2.25,1.88-5.12l3.24-8.2h2.89l-6.62,16.44h-2.87Z"/>
    <path class="st0" d="M326.41,558.95h8.78v2.51h-11.51v-16.44h11.37v2.47h-8.64v4.42h8.24v2.44h-8.24v4.6Z"/>
    <path class="st0" d="M343.15,561.46v-16.44h2.63l7.42,10.17,1.29,1.83.05-.02c-.05-.47-.07-1.01-.07-1.81v-10.17h2.72v16.44h-2.63l-7.42-10.17c-.77-1.06-1.06-1.46-1.29-1.83l-.07.02c.05.45.09,1.01.09,1.81v10.17h-2.72Z"/>
    <path class="st0" d="M377.5,545.02v2.44h-5.28v14h-2.75v-14h-5.28v-2.44h13.31Z"/>
    <path class="st0" d="M384.39,554.65v-9.63h2.72v9.6c0,2.91,1.67,4.67,4.18,4.67s4.18-1.76,4.18-4.65v-9.63h2.72v9.63c0,4.37-2.72,7.14-6.9,7.14s-6.9-2.75-6.9-7.14Z"/>
    <path class="st0" d="M416.6,561.46l-4.77-5.61h-2.28v5.61h-2.77v-16.44h6.69c3.48,0,5.8,2.14,5.8,5.38,0,2.72-1.64,4.72-4.25,5.28l5.03,5.78h-3.45ZM413.34,547.51h-3.78v5.87h3.8c1.97,0,3.15-1.08,3.15-2.89s-1.17-2.98-3.17-2.98Z"/>
    <path class="st0" d="M429.97,558.95h8.78v2.51h-11.51v-16.44h11.37v2.47h-8.64v4.42h8.24v2.44h-8.24v4.6Z"/>
    <path class="st0" d="M445.75,559.63l1.32-2.09c1.39,1.03,3.17,1.74,5.07,1.74,2.09,0,3.64-.96,3.64-2.61,0-1.36-.99-2.21-3.78-2.61-3.9-.54-5.78-1.97-5.78-4.53,0-2.91,2.61-4.84,6.04-4.84,2.09,0,3.88.47,5.61,1.76l-1.39,2c-1.2-.92-2.75-1.32-4.16-1.32-1.93,0-3.36.89-3.36,2.25,0,1.27,1.1,1.86,3.73,2.3,4.16.68,5.82,2.28,5.82,4.93,0,3.19-2.61,5.17-6.39,5.17-2.56,0-4.84-.87-6.39-2.16Z"/>
  </g>
  <path class="st0" d="M47.68,252.62h54.1c18.1-.01,32.15,11.87,32.15,30.93s-14.05,31.08-32.15,31.08h-32.89v35.52h-21.21v-97.54ZM68.89,269.47v28.32h29.79c7.97-.01,14.18-5.26,14.18-14.24s-6.21-14.09-14.18-14.09h-29.79Z"/>
  <path class="st0" d="M170.86,252.61h17.31l38.47,53.74,38.47-53.74h17.46v97.54h-24.26v-54.02l-23.64,33.02h-16.07l-23.64-33.02v54.02h-24.1v-97.54Z"/>
  <path class="st0" d="M319.08,252.61h22.69l23.37,65.76,23.64-65.76h22.42l-37.15,97.54h-18.24l-36.74-97.54Z"/>
</svg>